<svg width="363" height="315" viewBox="0 0 363 315" fill="none" xmlns="http://www.w3.org/2000/svg">
<g clip-path="url(#clip0_1_284)">
<path fill-rule="evenodd" clip-rule="evenodd" d="M281.737 256.785C283.792 263.716 282.488 271.789 277.785 277.499C274.742 281.162 267.509 284.47 263.478 280.65C261.66 278.917 260.909 273.089 260.119 270.332C259.408 267.812 258.222 263.165 258.736 261.038C259.487 257.966 265.652 258.675 268.537 258.4C272.963 257.966 277.35 257.376 281.737 256.785ZM339.834 260.329C340.782 262.456 342.324 263.874 342.995 266.197C343.403 267.722 343.694 269.275 343.865 270.844C344.063 272.774 344.221 272.695 342.877 273.561C340.861 274.939 335.684 274.821 333.234 275.215C330.032 275.727 326.831 276.357 323.63 276.869C324.42 273.876 323.986 270.686 324.816 267.654C325.587 264.648 326.973 261.832 328.886 259.384C330.309 257.573 332.404 255.407 334.973 255.407C338.253 255.407 338.806 258.006 339.834 260.329ZM136.338 196.572C136.812 202.952 135.903 209.725 132.267 215.199C130.726 217.523 128.473 218.783 126.655 220.752C124.56 223.075 123.414 225.911 120.055 226.895C117.921 227.525 115.391 227.092 113.139 227.368C109.424 227.84 108.317 227.329 105.195 225.399C102.942 224.021 100.373 224.296 98.0019 222.76C95.1563 220.949 92.706 218.389 89.979 216.341C105.155 209.056 120.727 202.795 136.338 196.572ZM176.926 200.392C182.696 203.11 185.779 207.717 187.399 213.703C171.472 217.326 155.94 221.776 140.29 226.777C144.677 215.711 149.577 205.551 161.513 200.392C163.884 199.368 166.334 197.714 169.061 197.754C171.828 197.793 174.555 199.25 176.926 200.392ZM322.326 216.814C330.546 221.106 326.357 234.89 323.511 240.994C319.875 238.316 316.042 235.717 312.445 233.117C308.533 230.282 305.055 226.58 301.498 223.351C303.395 222.367 304.62 220.831 306.359 219.689C308.098 218.586 309.797 218.507 311.774 218.074C315.449 217.247 318.453 214.766 322.326 216.814ZM258.222 185.782C258.894 186.609 259.645 187.397 260.277 188.263C261.779 190.35 263.083 192.477 264.822 194.406C267.905 197.833 272.41 202.361 277.429 202.676L277.587 204.133C276.086 204.094 275.216 202.834 273.912 202.676C272.884 202.558 271.462 203.346 270.236 203.228C266.401 202.866 262.548 202.721 258.696 202.795C250.99 202.991 243.401 204.212 235.853 205.197C237.315 200.038 240.003 194.8 244.31 191.374C245.812 190.193 247.235 188.539 248.895 187.594C249.922 187.042 250.989 186.964 252.017 186.53C253.203 186.018 254.784 184.286 256.009 184.128C257.313 184.01 257.313 184.64 258.222 185.782ZM319.954 186.255C323.986 189.484 327.108 193.58 330.428 197.478C333.431 200.983 337.502 206.024 338.569 210.513C333.234 213.033 324.065 210.71 320.626 206.102C316.398 200.392 318.492 192.437 319.954 186.255ZM227.435 167.825C226.644 173.18 224.036 179.166 220.163 183.144C218.503 184.876 217.041 187.121 215.104 188.618C212.614 190.587 210.638 189.563 207.753 189.878C204.67 190.193 202.655 192.201 199.335 191.689C197.003 191.295 194.829 189.996 192.616 189.602C190.205 189.169 188.111 189.445 185.7 188.224C182.736 186.767 180.365 183.853 178.072 181.647C179.298 180.702 181.748 180.623 183.289 180.111C185.344 179.442 187.399 178.733 189.455 178.103C193.723 176.764 197.952 175.386 202.22 174.047C210.401 171.526 218.977 169.124 227.435 167.825Z" fill="#D57A66"/>
<path fill-rule="evenodd" clip-rule="evenodd" d="M355.01 35.4274L354.734 37.1996C357.342 37.6721 357.421 36.0969 355.01 35.4274ZM343.707 32.3558C342.324 31.8832 340.032 32.592 341.138 34.246C342.679 36.6088 343.391 33.5372 343.707 32.3558ZM231.466 97.1365C231.664 96.9396 229.213 92.214 228.897 91.4264C227.316 92.3321 227.198 92.0958 227.83 93.6317C228.383 94.9706 230.359 96.2701 231.466 97.1365ZM85.9876 98.4361C85.2367 98.3573 83.6953 97.9241 83.063 98.1998C82.154 98.5542 82.3911 99.4206 82.3121 100.681C84.9205 100.523 85.3157 100.878 85.9876 98.4361ZM82.5492 95.8763C83.8534 96.1126 85.1181 96.3489 86.4223 96.5852C86.699 95.1281 87.4103 92.6865 84.7229 93.5529C84.4462 93.6317 82.9049 95.3644 82.5492 95.8763ZM234.509 98.8693C233.126 100.208 239.489 103.083 240.161 102.177C241.584 100.208 235.418 99.1843 234.509 98.8693ZM266.008 82.8414C266.759 82.7627 267.549 82.6839 268.3 82.6052C268.023 81.5025 267.233 77.3676 265.534 77.5645C263.874 77.8007 265.771 81.9751 266.008 82.8414ZM268.814 89.5755C268.853 88.6304 269.209 86.5826 268.853 85.6768C268.616 85.0861 267.589 83.2352 266.126 84.4167C265.81 84.6529 265.652 88.3941 265.771 88.5122C266.166 89.0242 268.261 89.3786 268.814 89.5755ZM260.87 101.508C259.289 100.287 255.851 98.5148 254.349 101.232C252.175 105.052 259.487 102.492 260.87 101.508ZM251.82 101.823C249.743 102.164 247.63 102.23 245.536 102.02C243.164 101.862 242.611 101.153 241.939 103.398C244.469 104.304 249.844 104.934 252.412 104.067L251.82 101.823ZM264.901 91.5051C264.19 93.0016 262.609 94.9312 262.174 96.467C261.858 97.6091 261.74 97.0578 262.016 97.9241C262.095 98.2392 263.399 99.5781 263.597 99.8931C265.138 98.7117 267.035 97.5303 267.826 95.7188C269.091 92.8441 267.47 92.6078 264.901 91.5051ZM229.609 85.4405C224.313 87.0945 217.831 88.6697 212.259 88.1972C212.18 88.6697 221.744 91.4657 222.89 91.2295C224.076 91.0326 224.155 89.418 225.538 88.5516C227.079 87.6065 228.344 88.1578 230.043 88.0003C229.885 87.1733 229.767 86.3069 229.609 85.4405ZM246.958 107.494C242.256 107.241 237.662 105.993 233.482 103.831C231.031 102.571 229.253 100.72 227.593 98.633C226.328 96.979 226.565 97.1365 224.589 96.5852C223.088 96.1914 221.27 96.3489 219.768 96.152C214.669 95.5219 209.611 93.9861 204.75 92.3715C199.296 90.56 194.632 88.0396 188.664 88.1972C178.389 88.4334 170.089 96.1914 159.379 92.9228C155.15 91.6233 150.724 89.9299 147.285 87.1733C142.819 83.5897 140.092 81.4631 133.809 82.7233C128.75 83.7472 124.837 86.425 120.529 88.906C115.589 91.702 110.175 93.3954 104.681 94.8918C102.579 95.4717 100.418 95.8151 98.2392 95.9157C96.8955 95.9945 90.493 95.01 89.7026 95.6794C88.9517 96.3489 88.596 100.917 88.675 101.744C88.7936 103.122 88.2008 103.28 89.7026 103.871C90.7301 104.264 93.9314 103.871 95.1961 104.028C105.511 105.21 116.063 105.564 126.22 107.336C135.745 108.99 145.349 110.329 154.755 112.298C167.007 114.818 179.535 116 191.787 118.441C197.715 119.623 203.722 121.316 209.571 122.576C214.907 123.718 220.281 124.782 225.656 125.845C225.459 125.097 224.352 122.419 226.131 122.694C227.277 122.852 229.174 126.751 229.767 127.617C232.399 131.468 235.566 134.929 239.173 137.895C242.927 141.124 246.721 144.314 250.515 147.504C253.638 150.103 260.317 153.962 260.159 158.491C258.262 158.846 254.507 155.498 253.084 154.593C250.199 152.742 247.433 150.733 244.785 148.646C242.255 152.308 248.223 156.601 248.935 160.066C247.393 160.066 244.824 155.853 243.876 154.75C241.386 157.034 238.619 159.082 236.841 161.957C256.839 161.09 260.119 185.821 274.544 194.209C277.746 196.06 281.737 196.848 285.413 196.021C289.207 195.154 292.882 193.973 296.242 191.846C303.711 187.042 309.205 177.866 312.129 169.951C313.75 165.58 315.291 161.366 316.003 156.758C316.832 151.678 316.042 146.48 315.41 141.439C314.224 132.421 309.402 123.285 302.605 116.827C299.562 113.913 296.202 111.392 293.396 108.242C292.408 107.139 290.195 102.925 288.97 102.65C286.717 102.177 285.531 105.328 283.99 102.729C282.449 100.208 285.373 99.2237 287.152 98.0423C289.088 96.7821 290.946 95.4432 292.803 94.1042C296.518 91.4657 300.194 88.906 303.751 86.0706C321.101 72.4056 336.475 57.2048 352.007 41.6889C349.082 41.0195 344.972 39.0111 342.008 39.5624C339.044 40.0743 336.396 42.1615 333.273 42.5159C330.23 42.8703 327.266 42.2009 324.46 41.2557C321.14 40.1137 318.888 38.696 316.082 41.492C311.616 45.9814 309.126 52.2429 304.423 56.4959C299.68 60.7884 293.001 63.3088 286.836 64.6083C281.105 65.8291 273.161 65.2384 268.972 69.7278C268.023 70.7517 267.193 71.4605 267.114 72.957C267.035 75.6348 267.628 73.7052 268.498 75.3985C269.92 78.1158 270.474 81.5025 270.79 84.4954C271.422 90.56 270.632 97.2153 265.731 101.39C260.396 105.721 253.914 107.612 246.958 107.494ZM246.682 97.6485C250.239 99.46 257.432 97.0971 260.277 94.8918C264.15 91.8989 264.467 86.6613 263.834 82.2901C262.056 82.7233 260.238 83.1565 258.42 83.5897C257.669 83.7866 256.878 83.9441 256.127 84.141C256.204 84.7499 256.094 85.3676 255.811 85.9131C254.112 88.079 253.282 87.0158 251.464 85.1255C247.512 81.1087 244.034 76.58 242.414 71.2242C240.596 73.3114 238.58 74.6503 235.695 74.3746C234.43 74.2565 229.569 72.76 230.834 70.5547C231.229 69.8459 235.181 70.7517 236.485 70.6729C239.252 70.5154 240.556 70.5941 241.544 67.995C242.374 65.8291 242.097 64.9627 239.489 64.5689C236.209 64.057 236.09 66.026 233.758 66.9318C227.791 69.2552 231.861 60.0402 231.031 57.4411C233.956 56.5747 237.039 55.984 239.647 54.33C236.762 54.6451 234.074 55.6296 231.268 56.299C231.506 52.9123 238.264 52.1641 240.833 51.1008C238.106 50.7464 235.497 52.5185 232.731 52.4398C230.162 52.3216 226.565 51.2584 224.076 50.4314C221.546 49.6044 219.531 47.2416 217.08 49.2893C215.46 50.6283 213.326 54.2906 212.772 56.2203C214.393 55.984 218.147 55.669 218.582 57.4805C219.135 59.8039 214.432 58.465 212.97 58.8194C210.757 59.4101 211.429 60.0402 210.638 62.2061C209.848 64.3326 208.425 66.0654 206.212 66.9318C208.702 68.2707 209.374 68.2313 208.899 70.7123C208.425 73.1539 208.741 75.8711 208.978 78.5884C210.48 78.0553 212.05 77.7371 213.642 77.6432C213.958 79.6122 210.875 80.4392 209.255 80.5574C210.085 83.1565 210.124 83.0383 212.97 83.0383C214.59 83.0383 216.171 82.9596 217.792 82.8808C221.032 82.7233 224.194 82.1326 227.395 81.6206C228.621 81.4237 230.359 80.7543 231.585 80.8724C233.837 81.1087 233.403 81.345 233.007 83.2352C232.494 85.795 233.086 87.764 233.719 90.56C229.885 89.2604 232.968 93.2379 234.786 94.0648C238.382 95.7188 242.73 97.4516 246.682 97.6485ZM37.5343 253.122C40.2217 254.461 42.7906 255.721 45.2805 257.454C47.7308 259.187 50.3392 262.062 53.4614 262.613C57.1764 263.282 58.0854 261.353 58.9944 258.517C60.022 255.328 60.9705 253.871 63.8951 252.138C69.1119 249.027 75.1982 247.018 80.8498 244.774C83.0235 243.907 83.1815 244.065 82.5492 241.899C82.154 240.56 81.6797 239.26 81.166 238C80.2174 235.637 79.1899 233.117 77.609 231.03C68.5981 236.937 57.8483 243.75 46.7823 245.167C42.2768 245.758 37.8504 246.743 33.424 247.136C31.3692 247.313 29.3688 247.889 27.5353 248.83C25.3617 249.893 21.8047 250.248 20.2634 251.98C26.073 251.862 31.7641 252.61 37.5343 253.122ZM258.459 260.841C256.641 261.589 259.092 265.842 259.605 267.614C260.396 270.292 261.147 272.931 261.898 275.608C263.557 281.24 265.138 286.871 266.719 292.542C277.153 286.911 288.337 283.642 299.957 280.964C311.497 278.286 323.314 276.357 335.131 274.506C341.573 273.482 348.371 272.104 354.338 269.505C358.053 267.89 357.342 266.354 357.263 262.77C357.223 259.384 356.67 255.918 356.156 252.571C355.168 246.231 354.141 239.339 351.572 233.393C349.082 227.604 345.723 222.012 342.521 216.538C338.688 210.04 335.447 203.07 330.467 197.32C325.29 191.334 319.717 185.9 314.066 180.308C310.707 186.688 305.885 194.406 299.68 198.423C292.843 202.834 282.054 205.118 274.307 201.416C266.482 197.714 261.819 190.074 256.957 183.419C252.254 177 248.184 170.069 239.845 167.785C231.031 165.383 221.744 168.651 213.168 170.738C203.366 173.101 193.763 176.449 184.238 179.638C167.718 185.191 151.277 190.232 135.152 196.848C115.312 204.96 95.4332 213.033 76.2653 222.524C80.415 228.431 83.6163 233.826 85.9876 240.639C87.8096 246.014 88.9384 251.598 89.3469 257.257C91.5601 255.052 93.299 252.413 95.5518 250.169C98.0811 247.648 101.085 245.679 104.088 243.71C109.486 240.071 115.169 236.871 121.083 234.141C134.678 227.919 149.103 223.666 163.489 219.216C166.73 218.231 170.564 217.05 173.962 216.499C176.847 216.026 179.377 215.199 182.301 214.529C188.901 212.954 195.62 211.537 202.299 210.395C215.104 208.229 228.225 205.905 241.228 204.409C250.041 203.385 259.25 201.731 268.3 202.637C269.841 202.794 271.343 203.07 272.885 203.03C273.319 203.03 273.833 202.4 274.268 202.44C275.137 202.518 276.046 203.464 276.916 203.779C278.892 204.409 281.737 204.015 282.804 205.63C283.674 206.929 283.358 207.953 282.054 208.819C283.595 210.788 286.599 212.56 288.693 214.096C290.551 215.475 292.29 216.971 294.187 218.271C296.202 219.688 298.653 221.027 300.747 222.484C303.514 224.375 305.845 226.816 308.454 228.943C313.117 232.763 317.781 236.11 322.682 239.694C325.241 241.632 327.921 243.408 330.704 245.01C332.285 245.876 335.842 248.239 333.985 250.405C332.127 252.532 328.412 249.381 326.397 249.145C324.065 248.869 320.943 250.326 318.611 250.681C312.446 251.586 306.28 252.374 300.154 253.359C293.12 254.461 286.164 255.958 279.129 256.903C275.493 257.375 271.857 257.848 268.182 258.163C266.284 258.32 263.637 258.084 261.858 258.675C260.514 258.281 259.922 258.675 260.119 259.817C259.603 260.214 259.046 260.557 258.459 260.841ZM63.816 100.681C67.6496 100.641 71.4832 100.878 75.3168 100.838C76.7791 100.838 78.0833 101.114 78.6761 100.09C79.427 98.8299 79.0713 95.6007 79.1899 94.183C74.8397 94.5832 70.463 94.6095 66.1083 94.2618C61.2867 93.8286 56.6231 92.4896 51.8015 92.1746C52.8291 92.5684 54.0147 94.6949 53.3428 95.7188C52.671 96.7427 51.6039 95.837 50.5368 95.3644C46.4661 93.5923 43.0673 90.9144 38.4828 92.0958C42.7116 94.2618 46.7032 97.7272 51.1296 99.0268C55.2624 100.155 59.5312 100.711 63.816 100.681ZM349.24 30.1898C351.098 30.5443 354.773 32.3951 356.433 31.45C358.488 30.308 358.053 25.6611 358.132 23.8496C358.37 18.297 358.804 10.6572 354.417 6.1678C353.627 11.4842 355.326 17.0762 355.208 22.4713C355.129 26.5275 353.587 24.3222 353.034 21.4474C352.52 18.8089 352.599 16.2492 351.927 13.6501C350.702 15.7766 350.386 18.612 349.517 20.9748C348.41 23.9284 346.829 26.5668 345.288 29.3235C346.592 29.5598 347.896 29.8748 349.24 30.1898ZM82.0354 103.122C81.9959 104.658 81.7983 106.155 83.7348 106.273C86.3037 106.47 85.4738 103.831 85.3157 102.177C84.4067 102.335 82.2726 102.059 82.0354 103.122ZM348.173 32.7102C346.553 32.5133 346.315 32.1589 345.288 33.2615C344.616 33.9704 344.577 35.2699 345.13 35.7425C347.58 37.7115 347.975 33.8128 348.173 32.7102ZM349.675 36.3332C350.939 36.5695 352.165 37.2389 352.876 36.0181C353.904 34.2066 351.414 34.0491 350.07 33.4978C349.951 34.4035 349.793 35.3487 349.675 36.3332ZM270.395 208.307C256.444 207.992 242.69 210.158 229.016 212.56C216.883 214.687 204.868 216.459 193.012 219.098C169.141 224.453 145.23 230.479 123.059 240.796C117.684 243.317 112.309 245.798 107.329 248.869C104.681 250.523 101.954 252.138 99.4249 253.989C98.0416 255.013 96.5793 255.997 95.3146 257.139C94.129 258.163 93.4571 259.581 92.3901 260.565C91.8763 261.038 89.7026 262.77 89.0702 262.967C87.687 263.401 88.2403 263.44 86.8175 262.455C83.8929 260.447 83.3001 257.809 82.4306 254.619C81.7983 252.374 82.2726 251.626 80.257 251.705C79.2294 251.744 77.6486 252.807 76.7 253.201C73.5778 254.501 70.2185 255.524 67.2544 257.06C64.8436 258.281 62.907 259.896 61.8795 262.337C60.6543 265.251 59.9429 267.614 56.2674 267.929C49.6673 268.52 45.8733 261.943 40.2217 259.738C34.1749 257.375 26.5078 257.848 20.1053 257.769C17.7375 257.759 15.3724 257.93 13.031 258.281C9.90876 258.714 6.19374 260.408 2.95298 259.344C-0.80156 258.124 -0.722517 252.807 1.76734 250.523C4.33623 248.121 8.20933 247.806 11.4896 246.979C18.1687 245.364 24.255 241.702 31.0923 240.56C37.89 239.418 45.0829 239.182 51.7225 237.134C55.0818 236.071 58.3621 235.283 61.5633 233.826C65.555 232.014 69.8628 230.794 73.815 229.021C72.4712 226.659 72.076 224.453 71.997 221.775C71.9575 220.003 71.6413 220.003 72.906 219.255C73.1431 219.373 73.3802 219.491 73.6569 219.649C74.4473 220.2 75.0006 219.964 75.3168 218.901C80.8103 215.593 85.869 212.049 91.7182 209.174C101.52 204.369 111.914 200.471 121.675 195.863C140.29 187.121 161.039 182.119 180.602 175.7C192.458 171.841 204.591 168.651 216.725 165.816C218.859 165.304 220.993 164.91 223.127 164.556C226.803 164.004 225.933 163.965 227.791 161.169C230.162 157.546 233.916 153.726 237.75 151.481C240.121 150.103 241.109 150.3 241.03 147.307C240.991 145.023 240.358 145.023 238.461 143.487C236.323 141.744 234.34 139.82 232.533 137.738C230.478 135.375 229.569 132.736 227.83 130.334C225.735 127.42 219.293 127.932 215.697 127.42C210.045 126.632 204.315 126.042 198.742 124.821C187.518 122.34 176.215 121.474 164.833 119.741C153.411 118.008 141.95 116.394 130.528 114.818C126.418 114.267 122.268 113.755 118.198 113.046C112.467 112.062 106.46 111.983 100.65 111.038C97.6464 110.565 94.0104 108.872 91.0068 109.029C87.766 109.187 90.6511 109.148 88.5565 110.25C87.5906 110.812 86.5097 111.148 85.3948 111.235C84.5354 111.284 83.6765 111.131 82.8871 110.789C82.0977 110.447 81.3999 109.925 80.8498 109.266C79.0713 107.06 79.9408 105.406 76.3443 105.131C73.973 104.934 71.2065 105.84 68.8353 105.997C66.464 106.115 64.0532 106.47 61.6819 106.391C56.9788 106.233 51.3668 105.84 47.0985 103.831C42.5535 101.705 38.5223 98.8693 33.7402 97.0578C31.3294 96.152 27.9305 95.7582 26.3497 93.5923C25.006 91.7808 24.6107 88.0396 26.6659 86.5432C29.8276 84.2591 35.9139 87.7246 39.3918 86.8582C41.1702 86.4251 39.7079 85.8737 41.0517 85.2436C41.8816 84.8498 41.7631 84.8105 42.7511 84.6529C45.2014 84.2985 49.1931 86.0312 51.6829 86.425C56.5836 87.2127 61.4447 88.4334 66.3454 89.1817C69.1514 89.6149 71.997 89.733 74.7635 90.1662C77.2138 90.56 79.1899 91.5051 80.9683 89.5755C81.7193 88.7485 81.4821 87.9215 82.6678 87.4883C83.7348 87.0945 86.8175 87.6458 87.8451 88.0396C88.9912 88.4728 89.2283 89.1029 90.1373 89.5755C90.1768 90.5206 90.5721 90.7963 91.323 90.4025C92.0366 90.3632 92.7523 90.4028 93.4571 90.5206C99.662 90.56 105.867 88.6304 111.518 86.3463C120.885 82.5658 132.504 71.9331 143.254 77.722C145.902 79.1397 147.641 81.5419 150.21 83.0777C152.666 84.5015 155.278 85.6379 157.996 86.4644C163.133 88.0003 168.232 87.8034 173.33 86.2281C179.535 84.2591 184.554 82.2507 191.233 82.4476C197.438 82.6445 202.378 86.937 208.465 87.0945C206.963 84.7317 206.726 81.9751 206.568 79.2972C206.449 77.5251 207.437 72.9176 206.37 71.4999C205.184 69.9247 195.976 69.2946 201.114 64.6477C202.813 63.1512 205.896 63.6632 207.635 62.0092C209.374 60.3158 209.413 57.6774 210.362 55.5902C211.429 53.2274 213.168 51.2584 214.946 49.3287C215.697 48.5411 216.211 48.0292 216.646 47.0447C217.159 45.9026 216.804 44.9575 217.634 43.7761C220.321 39.7987 225.064 41.177 229.174 41.6889C231.664 42.004 234.667 41.6889 237.078 42.3978C239.015 42.9491 241.544 44.6031 243.125 45.7845C246.603 48.4623 247.433 53.3849 247.67 57.4017C247.828 59.7645 247.354 61.9698 247.314 64.3326C247.275 66.8136 246.208 67.9163 244.271 69.5309C244.265 69.3295 244.198 69.1348 244.078 68.9728C243.958 68.8108 243.791 68.6895 243.599 68.6251C242.769 69.649 242.967 70.0428 244.232 69.8459C244.269 70.4554 244.505 71.036 244.903 71.4999C245.97 72.6813 246.84 73.9415 247.867 75.1229C250.12 77.722 252.729 79.9667 254.428 82.9202C256.246 80.833 258.538 80.4786 260.672 79.0215C262.767 77.6038 261.186 77.21 261.977 75.1623C262.293 74.3353 263.123 74.2171 263.399 73.587C263.676 72.9963 263.32 72.6025 263.518 71.9724C264.348 68.7039 263.992 66.6955 266.64 64.1357C270.118 60.7097 274.426 59.8039 279.248 59.1738C284.03 58.5437 287.428 58.3074 291.697 56.4172C293.159 55.7477 294.582 55.4721 295.965 54.7238C297.848 53.7727 299.623 52.6241 301.261 51.2977C305.095 48.1473 307.466 43.7761 310.588 39.9562C313.078 36.9239 316.042 33.0646 320.547 33.8522C325.646 34.758 330.112 37.8296 335.566 36.1757C337.581 35.5456 337.344 35.9394 338.174 34.0097C338.451 33.3797 338.609 32.7102 338.885 32.0801C339.834 29.7173 341.691 29.4022 342.838 27.4726C345.565 22.9045 347.027 17.1943 348.568 12.1536C349.28 9.83018 350.663 7.7824 351.532 5.57709C351.888 4.63196 351.73 0.457643 352.836 0.103219C356.393 -1.07819 359.239 8.1762 359.911 9.90894C361.61 14.4771 363.073 19.6359 362.44 24.5191C362.164 26.5275 361.966 28.8903 361.413 30.8593C360.938 32.6708 360.82 32.5527 361.096 34.1673C361.373 35.8212 361.729 36.8057 361.492 38.5385C361.413 39.0111 361.215 40.8226 360.978 41.0588C359.99 42.2009 359.871 41.4133 358.646 41.8464C356.71 42.5947 356.196 43.2248 354.813 44.9575C351.335 49.3287 347.738 53.6999 343.984 57.8349C337.423 65.1203 330.507 71.618 323.156 78.0764C315.923 84.4166 308.375 90.875 300.154 96.0339C298.178 97.294 294.898 98.3967 293.278 100.051C291.539 101.862 294.187 102.65 296.005 103.91C299.601 106.47 303.277 109.069 306.399 112.062C313.038 118.402 316.872 127.735 319.204 136.202C320.429 140.612 320.666 145.693 321.14 150.261C321.666 155.775 321.048 161.338 319.322 166.604C318.69 168.533 317.939 170.423 317.307 172.392C317.03 173.298 315.607 176.055 316.003 177.079C316.635 178.772 320.785 180.859 322.247 182.041C324.223 183.655 326.278 185.349 327.938 187.278C334.873 195.387 340.927 204.205 345.999 213.584C351.295 223.193 356.275 231.857 358.37 242.686C358.923 245.522 359.397 248.318 359.99 251.153C360.622 254.186 360.029 258.557 361.255 261.353C362.005 263.086 363.428 263.597 362.875 265.96C362.361 268.008 359.832 271.631 358.449 273.246C355.287 276.908 349.517 278.365 344.972 279.704C339.439 281.319 333.55 282.067 327.859 282.973C307.347 286.281 287.27 289.904 268.3 298.41C268.932 299.355 269.446 301.324 268.142 301.993C266.403 302.86 265.573 300.339 264.98 299.197C263.241 295.968 262.728 291.754 261.7 288.21C259.171 279.547 257.274 270.804 255.218 262.062C248.223 263.519 241.188 264.306 234.233 265.645C231.031 266.275 227.791 266.315 224.55 266.709C221.072 267.142 220.874 268.205 221.151 271.513C221.744 278.759 224.668 285.729 226.328 292.818C227.119 296.244 228.541 299.512 229.292 302.899C229.53 304.002 229.253 306.995 230.043 307.822C230.004 307.782 232.691 308.334 233.126 308.412C232.889 304.12 233.403 299.906 233.205 295.653C232.968 291.243 232.375 285.414 233.363 281.161C234.272 277.262 237.71 273.167 241.505 271.513C244.824 270.095 251.385 267.772 254.942 269.898C255.574 270.253 257.076 271.434 256.72 272.34C256.246 273.561 250.95 274.466 249.883 274.86C245.694 276.317 241.228 278.916 238.857 282.618C236.722 285.966 237.592 291.164 237.671 295.023C237.71 297.228 237.987 299.237 237.71 301.403C237.315 304.474 237.157 305.616 238.422 308.255C239.924 311.366 238.975 315.934 234.549 314.831C231.901 314.162 231.782 312.705 230.201 311.13C229.609 310.539 228.897 310.815 228.304 310.066C227.514 309.042 227.514 306.837 227.119 305.577C225.815 301.521 223.997 297.543 222.653 293.487C220.835 287.974 219.333 282.421 218.029 276.79C217.001 272.419 215.895 267.969 218.029 263.716C219.926 259.935 224.51 260.211 228.344 260.093C237.197 259.778 246.326 257.848 255.377 257.415C256.009 257.375 257.392 257.612 257.945 257.336C258.736 256.982 259.052 255.879 260.08 255.17C262.056 253.831 266.008 253.398 268.3 252.965C273.517 252.059 278.694 251.311 283.872 250.326C289.839 249.224 295.728 247.885 301.696 246.9C307.426 245.955 313.196 245.758 318.967 245.089C309.798 239.182 301.735 232.014 292.882 225.635C288.838 222.789 284.983 219.684 281.342 216.341C279.789 214.964 278.311 213.505 276.916 211.97C276.165 211.143 275.533 209.568 274.584 209.016C273.28 208.229 271.936 208.426 270.395 208.307Z" fill="#072125"/>
<path fill-rule="evenodd" clip-rule="evenodd" d="M236.723 42.3588C233.679 42.0832 230.201 42.0832 227.277 41.4137C229.846 41.65 234.351 41.4925 236.723 42.3588Z" fill="#072125"/>
<path fill-rule="evenodd" clip-rule="evenodd" d="M69.9815 89.6153C68.6773 89.4971 67.4126 89.379 66.1084 89.2609C67.4097 89.0828 68.7346 89.204 69.9815 89.6153Z" fill="#072125"/>
<path fill-rule="evenodd" clip-rule="evenodd" d="M149.459 117.575C150.328 117.654 151.198 117.733 152.028 117.812C151.198 117.733 150.328 117.654 149.459 117.575Z" fill="#072125"/>
<path fill-rule="evenodd" clip-rule="evenodd" d="M237.354 295.26C237.394 294.236 237.433 293.251 237.472 292.228C237.433 293.251 237.394 294.275 237.354 295.26Z" fill="#072125"/>
<path fill-rule="evenodd" clip-rule="evenodd" d="M232.612 303.057C232.612 303.766 232.573 304.514 232.573 305.223C232.573 304.475 232.612 303.766 232.612 303.057Z" fill="#072125"/>
<path fill-rule="evenodd" clip-rule="evenodd" d="M128.513 114.425C129.106 114.504 129.659 114.582 130.212 114.661C129.619 114.582 129.066 114.504 128.513 114.425Z" fill="#072125"/>
<path fill-rule="evenodd" clip-rule="evenodd" d="M225.538 41.2561C224.827 41.1773 224.115 41.138 223.404 41.0592C224.115 41.138 224.827 41.2167 225.538 41.2561Z" fill="#072125"/>
<path fill-rule="evenodd" clip-rule="evenodd" d="M232.73 291.834C232.691 292.543 232.691 293.291 232.652 294C232.691 293.291 232.73 292.543 232.73 291.834Z" fill="#072125"/>
<path fill-rule="evenodd" clip-rule="evenodd" d="M125.035 114.149C125.627 114.189 126.181 114.267 126.774 114.307C126.181 114.267 125.627 114.228 125.035 114.149Z" fill="#072125"/>
<path fill-rule="evenodd" clip-rule="evenodd" d="M134.045 115.37C134.638 115.41 135.192 115.488 135.784 115.528C135.192 115.488 134.638 115.449 134.045 115.37Z" fill="#072125"/>
<path fill-rule="evenodd" clip-rule="evenodd" d="M202.932 125.727L204.236 125.845C203.801 125.767 203.366 125.767 202.932 125.727Z" fill="#072125"/>
<path fill-rule="evenodd" clip-rule="evenodd" d="M233.045 299.198C233.006 299.788 232.928 300.34 232.889 300.931C232.928 300.34 232.967 299.788 233.045 299.198Z" fill="#072125"/>
<path fill-rule="evenodd" clip-rule="evenodd" d="M270.276 208.465L271.581 208.583C271.106 208.544 270.672 208.505 270.276 208.465Z" fill="#072125"/>
<path fill-rule="evenodd" clip-rule="evenodd" d="M52.4733 86.3073C51.92 86.1892 51.3272 86.1104 50.7739 85.9923C51.3667 86.1104 51.92 86.2286 52.4733 86.3073Z" fill="#072125"/>
<path fill-rule="evenodd" clip-rule="evenodd" d="M62.3142 88.0795L60.6147 87.6857L62.3142 88.0795Z" fill="#072125"/>
<path fill-rule="evenodd" clip-rule="evenodd" d="M39.4314 86.898C38.8781 86.7799 38.2852 86.6618 37.7319 86.583C38.2852 86.7011 38.8781 86.8193 39.4314 86.898Z" fill="#072125"/>
<path fill-rule="evenodd" clip-rule="evenodd" d="M264.19 208.387C264.467 208.426 264.783 208.465 265.059 208.505C264.776 208.427 264.484 208.387 264.19 208.387Z" fill="#072125"/>
<path fill-rule="evenodd" clip-rule="evenodd" d="M204.71 70.949C204.987 70.9884 205.263 71.0277 205.579 71.0671C205.286 71.064 204.994 71.0243 204.71 70.949Z" fill="#072125"/>
<path fill-rule="evenodd" clip-rule="evenodd" d="M301.577 246.94C300.985 246.979 300.431 247.019 299.838 247.058C300.392 247.019 300.985 246.979 301.577 246.94Z" fill="#072125"/>
<path fill-rule="evenodd" clip-rule="evenodd" d="M320.626 160.815L320.744 159.516L320.626 160.815Z" fill="#072125"/>
<path fill-rule="evenodd" clip-rule="evenodd" d="M217.989 127.46C218.266 127.499 218.582 127.499 218.859 127.539C218.571 127.495 218.28 127.468 217.989 127.46Z" fill="#072125"/>
<path fill-rule="evenodd" clip-rule="evenodd" d="M100.61 111.196C100.887 111.196 101.203 111.235 101.48 111.235C101.164 111.235 100.887 111.196 100.61 111.196Z" fill="#072125"/>
<path fill-rule="evenodd" clip-rule="evenodd" d="M55.6353 99.7361C56.979 99.8542 58.2041 99.8936 59.4688 100.287C58.2437 100.209 56.7814 100.366 55.6353 99.7361Z" fill="#072125"/>
<path fill-rule="evenodd" clip-rule="evenodd" d="M69.4678 100.366C70.6126 100.11 71.8075 100.192 72.9061 100.603C71.76 100.563 70.6139 100.484 69.4678 100.366Z" fill="#072125"/>
<path fill-rule="evenodd" clip-rule="evenodd" d="M246.603 97.8458C247.591 97.9246 248.618 98.0033 249.606 98.0821C248.611 98.3811 247.539 98.2968 246.603 97.8458Z" fill="#072125"/>
<path fill-rule="evenodd" clip-rule="evenodd" d="M348.134 32.553C347.422 32.4743 346.711 32.3561 346 32.2773C346.711 32.3955 347.422 32.4743 348.134 32.553Z" fill="#072125"/>
<path fill-rule="evenodd" clip-rule="evenodd" d="M34.8467 252.926C35.7557 252.493 36.5856 252.808 37.4156 253.162C36.5461 253.044 35.6766 253.005 34.8467 252.926Z" fill="#072125"/>
<path fill-rule="evenodd" clip-rule="evenodd" d="M88.6744 100.406C88.6744 101.114 88.6353 101.863 88.6353 102.571C88.6353 101.863 88.6744 101.114 88.6744 100.406Z" fill="#072125"/>
<path fill-rule="evenodd" clip-rule="evenodd" d="M247.038 107.494C246.445 107.455 245.892 107.415 245.299 107.376C245.892 107.415 246.484 107.455 247.038 107.494Z" fill="#072125"/>
<path fill-rule="evenodd" clip-rule="evenodd" d="M211.863 122.931C212.575 123.049 213.286 123.207 213.997 123.325C213.286 123.207 212.575 123.049 211.863 122.931Z" fill="#072125"/>
<path fill-rule="evenodd" clip-rule="evenodd" d="M64.8039 94.1834C64.2111 94.144 63.6578 94.1046 63.0649 94.1046C63.6578 94.144 64.2506 94.1834 64.8039 94.1834Z" fill="#072125"/>
<path fill-rule="evenodd" clip-rule="evenodd" d="M207.161 122.025C207.872 122.144 208.583 122.301 209.295 122.419C208.583 122.38 207.793 122.616 207.161 122.025Z" fill="#072125"/>
<path fill-rule="evenodd" clip-rule="evenodd" d="M71.6807 94.8135C71.2459 94.7741 70.8112 94.7741 70.3765 94.7347C70.8112 94.7741 71.2459 94.7741 71.6807 94.8135Z" fill="#072125"/>
<path fill-rule="evenodd" clip-rule="evenodd" d="M195.699 119.348C196.411 119.466 197.122 119.623 197.833 119.741C197.122 119.623 196.411 119.505 195.699 119.348Z" fill="#072125"/>
<path fill-rule="evenodd" clip-rule="evenodd" d="M349.556 36.4124C350.268 36.5305 350.979 36.688 351.69 36.8062C350.939 36.688 350.268 36.5699 349.556 36.4124Z" fill="#072125"/>
<path fill-rule="evenodd" clip-rule="evenodd" d="M169.654 115.016C170.366 115.094 171.077 115.173 171.788 115.213C171.077 115.173 170.366 115.094 169.654 115.016Z" fill="#072125"/>
<path fill-rule="evenodd" clip-rule="evenodd" d="M349.201 30.3478C349.912 30.4659 350.623 30.6234 351.335 30.7416C350.623 30.6234 349.912 30.4659 349.201 30.3478Z" fill="#072125"/>
<path fill-rule="evenodd" clip-rule="evenodd" d="M88.7144 103.517C89.4257 103.556 90.1371 103.595 90.888 103.674C90.5475 103.854 90.1629 103.935 89.7784 103.907C89.3939 103.879 89.0251 103.744 88.7144 103.517Z" fill="#072125"/>
<path fill-rule="evenodd" clip-rule="evenodd" d="M231.031 60.1193C231.07 59.5286 231.149 58.9773 231.188 58.3866C231.149 58.9773 231.07 59.5286 231.031 60.1193Z" fill="#072125"/>
<path fill-rule="evenodd" clip-rule="evenodd" d="M230.833 62.2459C230.873 61.6552 230.951 61.1039 230.99 60.5132C230.951 61.1039 230.912 61.6946 230.833 62.2459Z" fill="#072125"/>
<path fill-rule="evenodd" clip-rule="evenodd" d="M233.166 166.762C232.731 166.722 232.296 166.722 231.861 166.683C232.296 166.722 232.731 166.762 233.166 166.762Z" fill="#072125"/>
<path fill-rule="evenodd" clip-rule="evenodd" d="M270.75 86.8981C270.671 87.4494 270.632 88.0401 270.553 88.5914C270.632 88.0401 270.71 87.4888 270.75 86.8981Z" fill="#072125"/>
<path fill-rule="evenodd" clip-rule="evenodd" d="M280.038 196.061C280.749 196.061 281.5 196.061 282.212 196.021C281.461 196.021 280.749 196.021 280.038 196.061Z" fill="#072125"/>
<path fill-rule="evenodd" clip-rule="evenodd" d="M231.624 80.8335C231.894 80.6746 232.207 80.6043 232.519 80.6326C232.831 80.6608 233.126 80.7862 233.363 80.991C232.77 80.9123 232.177 80.8729 231.624 80.8335Z" fill="#072125"/>
<path fill-rule="evenodd" clip-rule="evenodd" d="M236.485 74.6507C236.209 74.6114 235.932 74.572 235.616 74.5326C235.932 74.572 236.209 74.6114 236.485 74.6507Z" fill="#072125"/>
<path fill-rule="evenodd" clip-rule="evenodd" d="M239.252 161.603C239.805 161.721 240.398 161.839 240.951 161.957C240.398 161.839 239.805 161.721 239.252 161.603Z" fill="#072125"/>
<path fill-rule="evenodd" clip-rule="evenodd" d="M219.649 207.205C220.242 207.205 220.795 207.166 221.388 207.166C220.795 207.166 220.242 207.166 219.649 207.205Z" fill="#072125"/>
<path fill-rule="evenodd" clip-rule="evenodd" d="M207.279 209.568C207.872 209.568 208.425 209.529 209.018 209.529C208.464 209.529 207.872 209.568 207.279 209.568Z" fill="#072125"/>
<path fill-rule="evenodd" clip-rule="evenodd" d="M202.022 210.434C202.615 210.395 203.169 210.395 203.761 210.356L202.022 210.434Z" fill="#072125"/>
<path fill-rule="evenodd" clip-rule="evenodd" d="M196.727 211.261L198.465 211.183C197.912 211.222 197.319 211.222 196.727 211.261Z" fill="#072125"/>
<path fill-rule="evenodd" clip-rule="evenodd" d="M308.019 252.375C307.584 252.335 307.15 252.335 306.715 252.296C307.189 252.335 307.584 252.335 308.019 252.375Z" fill="#072125"/>
<path fill-rule="evenodd" clip-rule="evenodd" d="M219.531 124.467C220.084 124.585 220.677 124.703 221.23 124.821C220.677 124.703 220.124 124.585 219.531 124.467Z" fill="#072125"/>
<path fill-rule="evenodd" clip-rule="evenodd" d="M326.515 41.8469C326.238 41.8469 325.922 41.8075 325.646 41.8075C325.922 41.8075 326.238 41.8469 326.515 41.8469Z" fill="#072125"/>
<path fill-rule="evenodd" clip-rule="evenodd" d="M69.5467 94.6561C69.259 94.6103 68.9685 94.584 68.6772 94.5773C68.9684 94.5857 69.2588 94.612 69.5467 94.6561Z" fill="#072125"/>
<path fill-rule="evenodd" clip-rule="evenodd" d="M191.036 118.087C191.589 118.206 192.182 118.324 192.735 118.442C192.182 118.324 191.628 118.206 191.036 118.087Z" fill="#072125"/>
<path fill-rule="evenodd" clip-rule="evenodd" d="M126.102 107.258C126.655 107.376 127.248 107.455 127.801 107.573C127.248 107.455 126.655 107.376 126.102 107.258Z" fill="#072125"/>
<path fill-rule="evenodd" clip-rule="evenodd" d="M75.9097 100.917C76.5025 100.917 77.0558 100.878 77.6486 100.878C77.0953 100.878 76.5025 100.878 75.9097 100.917Z" fill="#072125"/>
<path fill-rule="evenodd" clip-rule="evenodd" d="M91.7183 103.635C92.3111 103.398 92.9039 103.28 93.4572 103.753C92.8644 103.713 92.3111 103.674 91.7183 103.635Z" fill="#072125"/>
<path fill-rule="evenodd" clip-rule="evenodd" d="M290.669 138.368C292.764 138.683 293.752 139.156 294.305 141.164C294.582 142.109 293.831 143.842 294.068 144.433C294.424 145.22 294.898 144.787 295.491 145.535C297.625 148.253 298.771 153.608 294.582 155.499C293.001 153.608 293.554 151.364 294.621 149.395C292.369 148.883 291.183 148.804 290.472 146.52C290.393 146.244 290.234 142.936 290.155 142.858C289.681 142.385 287.784 142.858 287.152 142.503C285.729 141.716 285.057 138.998 285.413 137.502C285.927 135.415 288.14 134.351 289.8 133.17C284.385 133.288 279.445 137.384 274.031 137.62C272.529 137.699 272.134 138.368 271.62 136.675C271.146 135.178 271.659 135.375 272.687 134.627C274.703 133.17 277.785 132.186 280.196 131.319C283.674 130.098 289.642 127.224 293.396 128.838C295.254 129.626 296.597 132.107 296.005 133.997C295.412 135.927 292.171 137.266 290.669 138.368Z" fill="#072125"/>
<path fill-rule="evenodd" clip-rule="evenodd" d="M292.843 110.566C294.384 112.968 295.056 115.488 293.396 118.048C295.767 117.851 298.415 117.418 299.957 119.584C302.209 122.695 299.878 123.679 297.269 123.876C295.175 124.034 291.025 125.373 289.167 123.955C286.164 121.632 289.167 117.26 290.313 115.055C288.377 115.134 283.555 115.685 284.385 112.101C285.017 109.463 290.946 110.132 292.843 110.566Z" fill="#072125"/>
<path fill-rule="evenodd" clip-rule="evenodd" d="M268.102 126.121L266.245 128.326C267.193 128.523 268.498 127.736 269.328 127.381C268.893 126.948 268.498 126.515 268.102 126.121ZM265.257 123.167C263.044 122.852 260.633 125.767 260.119 122.498C259.803 120.608 261.581 118.166 263.676 117.89C267.312 117.378 272.45 125.648 273.359 128.484C274.189 131.122 273.319 130.728 271.383 131.713C269.723 132.54 267.549 134.509 265.375 133.918C263.399 133.367 262.767 130.217 262.767 128.563C262.767 126.003 264.308 125.176 265.257 123.167Z" fill="#072125"/>
<path fill-rule="evenodd" clip-rule="evenodd" d="M276.56 123.128C276.876 124.152 279.327 128.917 277.153 128.917C275.967 128.917 273.715 122.025 273.359 121.198C272.924 120.096 271.976 118.639 272.134 117.379C272.41 115.252 272.292 115.921 273.754 116.158C276.56 116.591 278.892 120.883 281.54 121.947C280.433 117.89 278.773 113.401 279.919 109.227C283.081 112.141 283.239 118.166 284.109 122.144C284.385 123.364 285.018 125.845 283.674 126.672C282.212 127.696 277.588 123.798 276.56 123.128Z" fill="#072125"/>
<path fill-rule="evenodd" clip-rule="evenodd" d="M256.325 131.949C257.392 129.744 258.499 127.184 254.626 128.011C255.219 129.311 255.772 130.61 256.325 131.949ZM255.1 122.734C258.42 122.459 260.317 126.83 260.673 129.35C260.949 131.359 258.855 138.408 256.009 136.281C254.942 135.493 254.349 133.328 253.677 132.225C252.729 130.728 251.385 129.311 250.674 127.696C249.132 124.309 251.859 122.734 255.1 122.734Z" fill="#072125"/>
<path fill-rule="evenodd" clip-rule="evenodd" d="M255.219 122.813C254.507 122.813 253.756 122.813 253.045 122.852C253.796 122.852 254.507 122.813 255.219 122.813Z" fill="#072125"/>
<path fill-rule="evenodd" clip-rule="evenodd" d="M293.159 110.802C292.606 110.684 292.013 110.526 291.459 110.408C292.013 110.526 292.566 110.684 293.159 110.802Z" fill="#072125"/>
<path fill-rule="evenodd" clip-rule="evenodd" d="M297.704 118.127C297.111 118.087 296.558 118.009 295.965 117.969C296.235 117.809 296.548 117.739 296.86 117.767C297.173 117.795 297.468 117.921 297.704 118.127Z" fill="#072125"/>
<path fill-rule="evenodd" clip-rule="evenodd" d="M218.108 62.0096C220.914 64.018 214.709 71.5397 212.259 65.4357C211.587 63.7424 211.784 61.6158 213.602 62.049C214.432 62.2459 214.511 63.4667 215.657 63.5061C216.764 63.5848 217.317 62.6003 218.108 62.0096Z" fill="#072125"/>
<path fill-rule="evenodd" clip-rule="evenodd" d="M234.391 69.0587C234.43 67.5622 237.315 64.5693 238.975 66.5383C240.635 68.5074 235.616 68.9799 234.391 69.0587Z" fill="#072125"/>
</g>
<defs>
<clipPath id="clip0_1_284">
<rect width="363" height="315" fill="white"/>
</clipPath>
</defs>
</svg>
